# xmcd CD database file
# Copyright 1993-1996 (C) Ti Kan
#
# Track frame offsets:
#    150
#    12010
#    23508
#    37505
#    50908
#    65288
#    80850
#    100423
#    116018
#    129713
#    141460
#    160163
#    179213
#    194443
#    211963
#    224215
#    247323
#    264040
#    281003
#    300013
#
# Disc length: 4283 seconds
#
# Revision: 0
# Processed by: cddbd v1.4b41PL1 Copyright (c) Steve Scherf et al.
# Submitted via: MyCDplayer 2.1.9  (wjohn@fix.net)
#
DISCID=2b10b914
DTITLE=Walker, Jerry Jeff - Gypsy Songman
DYEAR=1900
DGENRE=
TTITLE0=Gypsy Songman
TTITLE1=Pass It On
TTITLE2=Got Lucky Last Night
TTITLE3=Railroad Lady
TTITLE4=Jaded Lover
TTITLE5=Long Afternoons
TTITLE6=Night Rider's Lament
TTITLE7=Cadillac Cowboy
TTITLE8=Charlie Dunn
TTITLE9=Driftin' Way Of Life
TTITLE10=David and Me
TTITLE11=Mr. Bojangles
TTITLE12=Layin' My Life On The Line
TTITLE13=Hands On The Wheel
TTITLE14=Borderline
TTITLE15=My Old Man
TTITLE16=Then Came The Children
TTITLE17=Django's Lullaby
TTITLE18=She Knows Her Daddy Sings
TTITLE19=Hill Country Rain
EXTD=
EXTT0=
EXTT1=
EXTT2=
EXTT3=
EXTT4=
EXTT5=
EXTT6=
EXTT7=
EXTT8=
EXTT9=
EXTT10=
EXTT11=
EXTT12=
EXTT13=
EXTT14=
EXTT15=
EXTT16=
EXTT17=
EXTT18=
EXTT19=
PLAYORDER=
